<?xml version="1.0" standalone="no"?>
<!DOCTYPE svg PUBLIC "-//W3C//DTD SVG 20010904//EN"
 "http://www.w3.org/TR/2001/REC-SVG-20010904/DTD/svg10.dtd">
<svg version="1.0" xmlns="http://www.w3.org/2000/svg"
 width="507.000000pt" height="517.000000pt" viewBox="0 0 507.000000 517.000000"
 preserveAspectRatio="xMidYMid meet">

<g transform="translate(0.000000,517.000000) scale(0.100000,-0.100000)"
fill="#000000" stroke="none">
<path d="M2482 5093 c-182 -195 -288 -425 -307 -663 -19 -258 -77 -846 -83
-851 -32 -29 -537 -357 -544 -353 -4 3 -8 29 -8 57 -1 55 -11 76 -47 95 -49
26 -114 2 -132 -49 -6 -18 -11 -80 -11 -139 l0 -108 -257 -169 -258 -170 -5
74 c-4 66 -8 77 -33 99 -40 34 -90 32 -128 -5 l-29 -29 0 -135 0 -134 -310
-206 -310 -207 0 -175 c0 -133 3 -175 13 -175 6 0 475 133 1040 296 565 163
1030 295 1032 293 4 -5 135 -1726 135 -1774 0 -29 -10 -35 -370 -228 l-370
-199 0 -112 0 -112 520 88 520 88 515 -88 515 -88 0 106 -1 105 -355 190
c-196 105 -363 195 -371 201 -13 9 -7 117 52 905 37 492 70 897 74 900 3 3
470 -126 1036 -287 567 -161 1036 -293 1043 -294 9 0 12 42 12 178 l0 177
-310 205 -310 204 0 134 0 134 -29 29 c-22 21 -39 29 -66 29 -27 0 -44 -8 -66
-29 -26 -27 -29 -36 -29 -95 0 -36 -3 -66 -7 -66 -4 0 -121 75 -260 168 l-253
167 0 108 c0 156 -22 197 -105 197 -56 0 -85 -35 -85 -103 0 -29 -3 -56 -6
-60 -4 -4 -494 313 -551 358 -2 0 -18 176 -38 391 -49 550 -52 570 -80 667
-45 156 -150 337 -263 455 -28 28 -56 52 -63 52 -7 0 -33 -21 -57 -47z"/>
</g>
</svg>
